<?xml version="1.0" standalone="no"?><!DOCTYPE svg PUBLIC "-//W3C//DTD SVG 1.1//EN" "http://www.w3.org/Graphics/SVG/1.1/DTD/svg11.dtd"><svg class="icon" width="24px" height="24.00px" viewBox="0 0 1024 1024" version="1.1" xmlns="http://www.w3.org/2000/svg"><path d="M642.909091 395.636364h-256a34.909091 34.909091 0 1 0 0 69.818181h256a34.909091 34.909091 0 1 0 0-69.818181z m-372.363636-139.636364a34.909091 34.909091 0 1 0 0-69.818182h-58.181819a46.545455 46.545455 0 0 0-46.545454 46.545455v186.181818a46.545455 46.545455 0 0 0 46.545454 46.545454h58.181819a34.909091 34.909091 0 1 0 0-69.818181h-34.909091v-139.636364h34.909091z m372.363636 512h-256a34.909091 34.909091 0 1 0 0 69.818182h256a34.909091 34.909091 0 1 0 0-69.818182z m0-581.818182h-256a34.909091 34.909091 0 1 0 0 69.818182h256a34.909091 34.909091 0 1 0 0-69.818182z m-372.363636 442.181818a34.909091 34.909091 0 1 0 0-69.818181h-58.181819a46.545455 46.545455 0 0 0-46.545454 46.545454v186.181818a46.545455 46.545455 0 0 0 46.545454 46.545455h58.181819a34.909091 34.909091 0 1 0 0-69.818182h-34.909091v-139.636364h34.909091zM942.545455 698.181818a34.909091 34.909091 0 0 0 34.90909-34.909091V139.636364a93.090909 93.090909 0 0 0-93.090909-93.090909H139.636364a93.090909 93.090909 0 0 0-93.090909 93.090909v744.727272a93.090909 93.090909 0 0 0 93.090909 93.090909h744.727272a93.090909 93.090909 0 0 0 93.090909-93.090909v-81.454545a34.909091 34.909091 0 1 0-69.818181 0V884.363636a23.272727 23.272727 0 0 1-23.272728 23.272728H139.636364a23.272727 23.272727 0 0 1-23.272728-23.272728V139.636364a23.272727 23.272727 0 0 1 23.272728-23.272728h744.727272a23.272727 23.272727 0 0 1 23.272728 23.272728v523.636363a34.909091 34.909091 0 0 0 34.909091 34.909091z m-78.545455-465.454545a46.545455 46.545455 0 0 0-46.545455-46.545455h-58.181818a34.909091 34.909091 0 1 0 0 69.818182h34.909091v139.636364h-34.909091a34.909091 34.909091 0 1 0 0 69.818181h58.181818a46.545455 46.545455 0 0 0 46.545455-46.545454v-186.181818z m-221.090909 325.818182h-256a34.909091 34.909091 0 1 0 0 69.818181h256a34.909091 34.909091 0 1 0 0-69.818181z m116.363636 209.454545a34.909091 34.909091 0 1 0 0 69.818182h58.181818a46.545455 46.545455 0 0 0 46.545455-46.545455v-186.181818a46.545455 46.545455 0 0 0-46.545455-46.545454h-58.181818a34.909091 34.909091 0 1 0 0 69.818181h34.909091v139.636364h-34.909091z" fill="#231814" /></svg>