<?xml version="1.0" standalone="no"?><!DOCTYPE svg PUBLIC "-//W3C//DTD SVG 1.1//EN" "http://www.w3.org/Graphics/SVG/1.1/DTD/svg11.dtd"><svg class="icon" width="200px" height="200.00px" viewBox="0 0 1024 1024" version="1.1" xmlns="http://www.w3.org/2000/svg"><path d="M297.890909 1000.727273c-23.272727 0-44.218182-18.618182-46.545454-41.890909L186.181818 186.181818h651.636364l-65.163637 772.654546c-2.327273 23.272727-23.272727 41.890909-46.545454 41.890909H297.890909z" fill="#FFE1B7" /><path d="M721.454545 209.454545H211.781818l2.327273 23.272728h365.381818c25.6 0 46.545455 20.945455 46.545455 48.872727L609.745455 768H258.327273l2.327272 23.272727h323.49091c13.963636 0 23.272727 11.636364 23.272727 23.272728l-2.327273 93.090909c0 25.6-20.945455 44.218182-46.545454 44.218181H274.618182v2.327273c0 11.636364 11.636364 20.945455 23.272727 20.945455h428.218182c11.636364 0 23.272727-9.309091 23.272727-20.945455l62.836364-744.727273H721.454545z" fill="#E9CBA4" /><path d="M726.109091 1024H297.890909c-37.236364 0-67.490909-27.927273-69.818182-62.836364L162.909091 188.509091c0-6.981818 2.327273-13.963636 6.981818-18.618182 4.654545-4.654545 9.309091-6.981818 16.290909-6.981818h651.636364c6.981818 0 11.636364 2.327273 16.290909 6.981818 4.654545 4.654545 6.981818 11.636364 6.981818 18.618182l-65.163636 772.654545c-4.654545 34.909091-34.909091 62.836364-69.818182 62.836364zM211.781818 209.454545l62.836364 747.054546c0 11.636364 11.636364 20.945455 23.272727 20.945454h425.890909c11.636364 0 23.272727-9.309091 23.272727-20.945454L812.218182 209.454545H211.781818z" fill="#014463" /><path d="M209.454545 744.727273L186.181818 418.909091h651.636364l-23.272727 325.818182z" fill="#F79548" /><path d="M628.363636 442.181818l-6.981818 279.272727h172.218182l18.618182-279.272727z" fill="#F37321" /><path d="M814.545455 768H209.454545c-11.636364 0-23.272727-9.309091-23.272727-20.945455l-23.272727-325.818181c0-6.981818 2.327273-11.636364 6.981818-18.618182 4.654545-4.654545 9.309091-6.981818 16.290909-6.981818h651.636364c6.981818 0 11.636364 2.327273 16.290909 6.981818 4.654545 4.654545 6.981818 11.636364 6.981818 18.618182l-23.272727 325.818181c0 11.636364-11.636364 20.945455-23.272727 20.945455zM230.4 721.454545H791.272727l20.945455-279.272727H211.781818l18.618182 279.272727z" fill="#014463" /><path d="M162.909091 186.181818V128C162.909091 109.381818 179.2 93.090909 197.818182 93.090909h23.272727c18.618182 0 34.909091-16.290909 34.909091-34.909091S272.290909 23.272727 290.909091 23.272727h442.181818c18.618182 0 34.909091 16.290909 34.909091 34.909091S784.290909 93.090909 802.909091 93.090909h23.272727c18.618182 0 34.909091 16.290909 34.909091 34.909091V186.181818H162.909091z" fill="#EDF1F9" /><path d="M826.181818 116.363636h-23.272727C770.327273 116.363636 744.727273 90.763636 744.727273 58.181818c0-6.981818-4.654545-11.636364-11.636364-11.636363h-141.963636c2.327273 0 4.654545 4.654545 4.654545 11.636363 0 32.581818 9.309091 58.181818 20.945455 58.181818h9.309091s2.327273 4.654545 2.327272 11.636364V162.909091h209.454546V128c0-6.981818-4.654545-11.636364-11.636364-11.636364z" fill="#CAD5E3" /><path d="M826.181818 116.363636h-23.272727C770.327273 116.363636 744.727273 90.763636 744.727273 58.181818c0-6.981818-4.654545-11.636364-11.636364-11.636363h-139.636364c6.981818 0 11.636364 4.654545 11.636364 11.636363C605.090909 90.763636 630.690909 116.363636 663.272727 116.363636h23.272728c6.981818 0 11.636364 4.654545 11.636363 11.636364V162.909091h139.636364V128c0-6.981818-4.654545-11.636364-11.636364-11.636364z" fill="#CAD5E3" /><path d="M512 581.818182m-69.818182 0a69.818182 69.818182 0 1 0 139.636364 0 69.818182 69.818182 0 1 0-139.636364 0Z" fill="#EDF1F9" /><path d="M651.636364 558.545455h-48.872728c-9.309091-39.563636-46.545455-69.818182-90.763636-69.818182s-79.127273 30.254545-90.763636 69.818182H372.363636c-13.963636 0-23.272727 9.309091-23.272727 23.272727s9.309091 23.272727 23.272727 23.272727h48.872728c9.309091 39.563636 46.545455 69.818182 90.763636 69.818182s79.127273-30.254545 90.763636-69.818182H651.636364c13.963636 0 23.272727-9.309091 23.272727-23.272727s-9.309091-23.272727-23.272727-23.272727z m-139.636364 69.818181c-25.6 0-46.545455-20.945455-46.545455-46.545454s20.945455-46.545455 46.545455-46.545455 46.545455 20.945455 46.545455 46.545455-20.945455 46.545455-46.545455 46.545454z" fill="#014463" /><path d="M826.181818 69.818182h-23.272727c-6.981818 0-11.636364-4.654545-11.636364-11.636364C791.272727 25.6 765.672727 0 733.090909 0h-442.181818C258.327273 0 232.727273 25.6 232.727273 58.181818c0 6.981818-4.654545 11.636364-11.636364 11.636364h-23.272727C165.236364 69.818182 139.636364 95.418182 139.636364 128V186.181818c0 13.963636 9.309091 23.272727 23.272727 23.272727h698.181818c13.963636 0 23.272727-9.309091 23.272727-23.272727V128C884.363636 95.418182 858.763636 69.818182 826.181818 69.818182zM279.272727 58.181818c0-6.981818 4.654545-11.636364 11.636364-11.636363h442.181818c6.981818 0 11.636364 4.654545 11.636364 11.636363 0 4.654545 0 6.981818 2.327272 11.636364H276.945455c2.327273-4.654545 2.327273-6.981818 2.327272-11.636364zM837.818182 162.909091H186.181818V128c0-6.981818 4.654545-11.636364 11.636364-11.636364h628.363636c6.981818 0 11.636364 4.654545 11.636364 11.636364V162.909091z" fill="#004463" /></svg>